<svg width="419" height="110" viewBox="0 0 419 110" fill="none" xmlns="http://www.w3.org/2000/svg">
<path d="M10.8023 80.451H16.3813V86.548C16.3813 98.2352 25.9153 107.711 37.6775 107.711H91.0508C102.813 107.711 112.347 98.2352 112.347 86.548V80.451H120.84C123.492 80.451 125.643 78.3121 125.643 75.6789V50.1232H128.973C130.232 50.1232 131.274 49.1006 131.274 47.8394V45.398C131.274 44.1368 130.245 43.1143 128.985 43.1143H125.656V38.3891C125.656 35.756 123.501 33.6129 120.853 33.6129H113.003C111.948 26.817 105.585 24.1839 105.585 24.1839C124.718 18.483 113.234 1.08226 113.234 1.08226C109.348 8.44052 104.424 9.31823 96.077 8.74304C87.5243 8.15506 48.4627 -10.3876 27.4536 8.37235C17.2512 17.486 15.0959 26.7105 15.4515 33.6129H10.8023C8.15425 33.6129 5.99892 35.7517 5.99892 38.3891V43.1143H2.29673C1.03696 43.1143 0 44.1368 0 45.398V47.8394C0 49.0921 1.02839 50.1232 2.29673 50.1232H5.99892V75.6789C5.99892 78.3121 8.15425 80.451 10.8023 80.451V80.451ZM81.1054 43.8002C81.1054 42.211 82.3995 40.9243 83.9978 40.9243H115.389C116.988 40.9243 118.282 42.211 118.282 43.8002V70.3147C118.282 71.904 116.988 73.1907 115.389 73.1907H83.9978C82.3995 73.1907 81.1054 71.904 81.1054 70.3147V43.8002V43.8002ZM13.3776 43.8002C13.3776 42.211 14.6717 40.9243 16.2699 40.9243H47.6614C49.2597 40.9243 50.5538 42.211 50.5538 43.8002V70.2678C50.5538 71.8571 49.2597 73.1438 47.6614 73.1438H16.2699C14.6717 73.1438 13.3776 71.8571 13.3776 70.2678V43.8002V43.8002Z" fill="white"/>
<path d="M357.28 56.6237V49.8812L371.973 32.6362H384.07L366.005 53.2878L357.28 56.6237Z" fill="#0097CD"/>
<path d="M366.006 53.2739L384.07 73.9255H371.973L357.28 56.6805V49.938L366.006 53.2739Z" fill="#0097CD"/>
<path d="M189.397 51.8961H196.698V57.6845C196.698 58.2216 196.521 58.6881 196.176 59.0768C195.83 59.4655 195.315 59.6634 194.652 59.6634H189.397V73.947H180.728V59.6634H156.252C155.582 59.6634 154.997 59.4514 154.489 59.0344C153.981 58.6174 153.663 58.0944 153.529 57.4795L152.521 52.4191L180.009 15.3989H189.397V51.8961ZM180.728 32.757C180.728 31.8947 180.756 30.9618 180.813 29.9653C180.862 28.9687 180.961 27.9298 181.095 26.8485L163.073 51.8961H180.728V32.757Z" fill="white"/>
<path d="M230.646 65.9325C233.08 65.9325 235.203 65.7134 237.008 65.2682C238.814 64.8229 240.535 64.208 242.165 63.4306V52.7797H234.899C234.201 52.7797 233.658 52.5818 233.256 52.1931C232.854 51.8044 232.656 51.3238 232.656 50.7583V44.6095H251.962V68.279C250.488 69.3603 248.957 70.2932 247.37 71.0919C245.776 71.8905 244.076 72.5407 242.27 73.0567C240.465 73.5726 238.532 73.9543 236.472 74.2087C234.413 74.4631 232.191 74.5903 229.814 74.5903C225.589 74.5903 221.695 73.8482 218.14 72.364C214.578 70.8798 211.503 68.8161 208.907 66.1728C206.311 63.5295 204.287 60.3774 202.827 56.7093C201.367 53.0412 200.64 49.0339 200.64 44.6943C200.64 40.2983 201.345 36.2627 202.763 32.5946C204.181 28.9265 206.198 25.7743 208.801 23.1311C211.411 20.4878 214.571 18.4382 218.295 16.9822C222.012 15.5263 226.181 14.7983 230.815 14.7983C235.548 14.7983 239.654 15.5051 243.117 16.9257C246.58 18.3392 249.522 20.1839 251.927 22.4455L248.795 27.3787C248.181 28.3752 247.363 28.877 246.347 28.877C245.706 28.877 245.05 28.665 244.379 28.2268C243.519 27.7179 242.651 27.202 241.748 26.6861C240.853 26.1772 239.865 25.7319 238.779 25.3503C237.693 24.9757 236.479 24.6647 235.125 24.4174C233.771 24.1771 232.212 24.0569 230.449 24.0569C227.585 24.0569 224.996 24.5446 222.683 25.5128C220.369 26.4811 218.394 27.8734 216.765 29.6827C215.135 31.492 213.88 33.6618 212.991 36.1991C212.109 38.7363 211.665 41.5634 211.665 44.6943C211.665 48.0656 212.13 51.0693 213.068 53.6985C214.007 56.3276 215.312 58.5469 216.997 60.3562C218.683 62.1655 220.686 63.5437 223.014 64.5049C225.349 65.4519 227.895 65.9325 230.646 65.9325Z" fill="white"/>
<path d="M278.477 31.7883C281.073 31.7883 283.457 32.2053 285.636 33.0393C287.816 33.8733 289.692 35.096 291.272 36.7003C292.852 38.3047 294.08 40.2765 294.968 42.6088C295.85 44.9412 296.294 47.6056 296.294 50.6023C296.294 51.3586 296.259 51.9876 296.196 52.4823C296.132 52.9841 296.005 53.3728 295.836 53.6555C295.66 53.9382 295.427 54.1432 295.138 54.2633C294.841 54.3835 294.468 54.4471 294.016 54.4471H268.574C268.87 58.7089 270.006 61.8398 271.988 63.8329C273.963 65.833 276.587 66.8296 279.852 66.8296C281.461 66.8296 282.843 66.6387 284.007 66.2641C285.171 65.8896 286.187 65.4726 287.054 65.0132C287.922 64.5538 288.684 64.1368 289.34 63.7622C289.996 63.3876 290.63 63.1968 291.244 63.1968C291.646 63.1968 291.992 63.2745 292.288 63.4371C292.584 63.5997 292.838 63.8258 293.05 64.1227L295.942 67.7625C294.841 69.0559 293.614 70.1443 292.246 71.0206C290.884 71.897 289.46 72.5967 287.971 73.1268C286.49 73.6498 284.973 74.0244 283.436 74.2364C281.898 74.4484 280.41 74.5615 278.964 74.5615C276.1 74.5615 273.441 74.0809 270.979 73.1268C268.517 72.1727 266.38 70.7521 264.56 68.8792C262.74 67.0062 261.309 64.6881 260.265 61.9176C259.221 59.1541 258.699 55.9525 258.699 52.3127C258.699 49.4786 259.15 46.8141 260.06 44.3192C260.97 41.8243 262.275 39.6546 263.975 37.8029C265.675 35.9582 267.748 34.4952 270.196 33.4139C272.637 32.3255 275.402 31.7883 278.477 31.7883ZM278.675 38.9478C275.783 38.9478 273.525 39.7677 271.896 41.4144C270.267 43.0612 269.216 45.3935 268.764 48.4114H287.386C287.386 47.118 287.209 45.8953 286.864 44.7503C286.518 43.6054 285.982 42.6018 285.256 41.7325C284.536 40.8702 283.626 40.1917 282.526 39.6899C281.432 39.1952 280.149 38.9478 278.675 38.9478Z" fill="white"/>
<path d="M321.37 31.7883C323.966 31.7883 326.35 32.2053 328.537 33.0393C330.716 33.8733 332.593 35.096 334.173 36.7003C335.753 38.3047 336.98 40.2765 337.869 42.6088C338.75 44.9412 339.195 47.6056 339.195 50.6023C339.195 51.3586 339.16 51.9876 339.096 52.4823C339.033 52.9841 338.906 53.3728 338.736 53.6555C338.56 53.9382 338.327 54.1432 338.038 54.2633C337.742 54.3835 337.368 54.4471 336.917 54.4471H311.474C311.77 58.7089 312.906 61.8398 314.888 63.8329C316.863 65.833 319.487 66.8296 322.753 66.8296C324.361 66.8296 325.744 66.6387 326.907 66.2641C328.071 65.8896 329.087 65.4726 329.955 65.0132C330.822 64.5538 331.584 64.1368 332.24 63.7622C332.896 63.3876 333.531 63.1968 334.144 63.1968C334.546 63.1968 334.892 63.2745 335.188 63.4371C335.485 63.5997 335.739 63.8258 335.95 64.1227L338.842 67.7625C337.742 69.0559 336.514 70.1443 335.146 71.0206C333.785 71.897 332.36 72.5967 330.872 73.1268C329.39 73.6498 327.874 74.0244 326.336 74.2364C324.798 74.4484 323.31 74.5615 321.864 74.5615C319 74.5615 316.341 74.0809 313.879 73.1268C311.418 72.1727 309.28 70.7521 307.461 68.8792C305.641 67.0062 304.209 64.6881 303.165 61.9176C302.121 59.1541 301.599 55.9525 301.599 52.3127C301.599 49.4786 302.05 46.8141 302.96 44.3192C303.87 41.8243 305.175 39.6546 306.875 37.8029C308.575 35.9582 310.649 34.4952 313.096 33.4139C315.53 32.3255 318.295 31.7883 321.37 31.7883ZM321.575 38.9478C318.683 38.9478 316.426 39.7677 314.796 41.4144C313.167 43.0612 312.116 45.3935 311.665 48.4114H330.286C330.286 47.118 330.11 45.8953 329.764 44.7503C329.419 43.6054 328.882 42.6018 328.156 41.7325C327.436 40.8702 326.527 40.1917 325.426 39.6899C324.326 39.1952 323.042 38.9478 321.575 38.9478Z" fill="white"/>
<path d="M357.28 54.9277V73.9396H347.37V13.8225H357.28V48.2488" fill="white"/>
<path d="M415.945 40.5241C415.677 40.9552 415.395 41.2591 415.106 41.4358C414.81 41.6125 414.436 41.6973 413.984 41.6973C413.505 41.6973 412.99 41.563 412.44 41.2945C411.889 41.0259 411.255 40.722 410.535 40.3828C409.816 40.0435 408.99 39.7396 408.066 39.471C407.142 39.2025 406.056 39.0682 404.793 39.0682C402.84 39.0682 401.302 39.4852 400.18 40.3191C399.059 41.1531 398.495 42.2486 398.495 43.5985C398.495 44.489 398.784 45.2382 399.362 45.846C399.934 46.4538 400.695 46.9839 401.648 47.4433C402.593 47.9027 403.672 48.3126 404.878 48.6801C406.084 49.0476 407.312 49.4434 408.574 49.8746C409.83 50.3057 411.064 50.8004 412.27 51.3517C413.476 51.903 414.549 52.6027 415.501 53.4578C416.453 54.306 417.215 55.3237 417.786 56.511C418.365 57.6984 418.654 59.1261 418.654 60.8011C418.654 62.7942 418.294 64.6388 417.568 66.3209C416.848 68.0101 415.79 69.466 414.4 70.6887C413.011 71.9184 411.29 72.8726 409.244 73.5581C407.199 74.2437 404.85 74.59 402.205 74.59C400.787 74.59 399.404 74.4628 398.05 74.2083C396.696 73.9539 395.398 73.5935 394.157 73.1341C392.915 72.6747 391.758 72.1375 390.707 71.5156C389.649 70.8936 388.718 70.2222 387.921 69.4942L390.207 65.6919C390.503 65.2325 390.848 64.8791 391.251 64.6388C391.653 64.3985 392.16 64.2713 392.774 64.2713C393.388 64.2713 393.973 64.448 394.523 64.7943C395.074 65.1477 395.708 65.5223 396.428 65.9251C397.147 66.328 398.001 66.7096 398.974 67.0559C399.948 67.4093 401.189 67.5789 402.684 67.5789C403.862 67.5789 404.871 67.4376 405.717 67.1549C406.557 66.8722 407.255 66.4976 407.805 66.0453C408.356 65.5859 408.758 65.0558 409.012 64.448C409.265 63.8402 409.392 63.2111 409.392 62.568C409.392 61.5997 409.103 60.8011 408.532 60.1791C407.953 59.5572 407.192 59.02 406.246 58.5607C405.294 58.1013 404.215 57.6913 402.995 57.3238C401.775 56.9634 400.533 56.5605 399.263 56.1294C397.994 55.6983 396.752 55.1894 395.532 54.6099C394.312 54.0303 393.233 53.2953 392.28 52.4048C391.335 51.5142 390.566 50.4258 389.995 49.1254C389.417 47.832 389.134 46.2701 389.134 44.4325C389.134 42.7363 389.466 41.1178 390.136 39.577C390.806 38.0363 391.787 36.7005 393.084 35.5485C394.382 34.3965 395.998 33.4848 397.937 32.7992C399.877 32.1136 402.113 31.7673 404.659 31.7673C407.495 31.7673 410.077 32.2409 412.404 33.1809C414.732 34.1279 416.672 35.3647 418.224 36.9055L415.945 40.5241Z" fill="white"/>
<path d="M241.849 101.153C240.587 101.212 239.526 101.324 238.665 101.49C237.804 101.643 237.114 101.843 236.595 102.091C236.077 102.339 235.705 102.627 235.481 102.958C235.257 103.288 235.145 103.648 235.145 104.037C235.145 104.803 235.369 105.352 235.817 105.682C236.277 106.012 236.873 106.177 237.604 106.177C238.5 106.177 239.272 106.018 239.921 105.699C240.581 105.369 241.224 104.874 241.849 104.214V101.153ZM231.837 93.282C233.924 91.3717 236.436 90.4165 239.373 90.4165C240.434 90.4165 241.383 90.5934 242.22 90.9472C243.058 91.2891 243.765 91.7726 244.343 92.3976C244.921 93.0108 245.357 93.7478 245.652 94.6087C245.959 95.4695 246.112 96.4129 246.112 97.4388V108.901H244.131C243.718 108.901 243.4 108.842 243.176 108.724C242.952 108.594 242.775 108.341 242.645 107.964L242.256 106.655C241.796 107.067 241.348 107.433 240.911 107.751C240.475 108.058 240.021 108.317 239.549 108.53C239.078 108.742 238.571 108.901 238.028 109.007C237.498 109.125 236.908 109.184 236.259 109.184C235.493 109.184 234.785 109.084 234.137 108.883C233.488 108.671 232.928 108.359 232.456 107.946C231.985 107.533 231.619 107.02 231.36 106.407C231.1 105.794 230.971 105.08 230.971 104.267C230.971 103.807 231.047 103.353 231.2 102.905C231.354 102.445 231.601 102.008 231.943 101.596C232.297 101.183 232.751 100.794 233.305 100.428C233.86 100.063 234.538 99.7442 235.34 99.473C236.153 99.2018 237.097 98.9836 238.17 98.8185C239.243 98.6417 240.469 98.5355 241.849 98.5002V97.4388C241.849 96.2242 241.59 95.328 241.071 94.7502C240.552 94.1606 239.803 93.8658 238.824 93.8658C238.117 93.8658 237.527 93.9483 237.055 94.1134C236.595 94.2785 236.189 94.4672 235.835 94.6794C235.481 94.8799 235.157 95.0627 234.862 95.2278C234.579 95.3929 234.261 95.4754 233.907 95.4754C233.6 95.4754 233.341 95.3988 233.129 95.2455C232.916 95.0804 232.745 94.8917 232.616 94.6794L231.837 93.282Z" fill="white"/>
<path d="M220.767 94.5907C220.637 94.7558 220.507 94.8855 220.378 94.9798C220.26 95.0741 220.083 95.1213 219.847 95.1213C219.623 95.1213 219.405 95.0565 219.193 94.9267C218.98 94.7852 218.727 94.6319 218.432 94.4668C218.137 94.29 217.783 94.1367 217.371 94.0069C216.97 93.8654 216.469 93.7947 215.867 93.7947C215.101 93.7947 214.428 93.9362 213.851 94.2192C213.273 94.4904 212.789 94.8855 212.4 95.4043C212.023 95.9232 211.74 96.5541 211.551 97.297C211.362 98.0281 211.268 98.8595 211.268 99.7911C211.268 100.758 211.368 101.619 211.569 102.374C211.781 103.128 212.082 103.765 212.471 104.284C212.86 104.791 213.332 105.18 213.886 105.451C214.44 105.711 215.065 105.841 215.761 105.841C216.457 105.841 217.017 105.758 217.441 105.593C217.878 105.416 218.243 105.227 218.538 105.027C218.833 104.815 219.086 104.626 219.299 104.461C219.523 104.284 219.77 104.196 220.042 104.196C220.395 104.196 220.661 104.331 220.838 104.602L222.094 106.194C221.61 106.76 221.085 107.238 220.519 107.627C219.953 108.004 219.364 108.311 218.75 108.547C218.149 108.771 217.524 108.93 216.875 109.024C216.239 109.119 215.602 109.166 214.965 109.166C213.845 109.166 212.789 108.96 211.799 108.547C210.808 108.122 209.942 107.509 209.199 106.707C208.456 105.905 207.866 104.927 207.43 103.771C207.005 102.604 206.793 101.277 206.793 99.7911C206.793 98.4586 206.982 97.2263 207.359 96.0942C207.748 94.9503 208.314 93.9657 209.057 93.1402C209.8 92.3029 210.72 91.6485 211.816 91.1768C212.913 90.7051 214.175 90.4692 215.602 90.4692C216.958 90.4692 218.143 90.6874 219.157 91.1237C220.183 91.56 221.103 92.185 221.917 92.9987L220.767 94.5907Z" fill="white"/>
<path d="M188.053 90.4692C189.397 90.4692 190.618 90.6874 191.715 91.1237C192.823 91.56 193.767 92.1791 194.545 92.981C195.335 93.7829 195.942 94.7617 196.367 95.9173C196.791 97.073 197.004 98.3642 197.004 99.7911C197.004 101.23 196.791 102.527 196.367 103.683C195.942 104.838 195.335 105.823 194.545 106.637C193.767 107.45 192.823 108.075 191.715 108.512C190.618 108.948 189.397 109.166 188.053 109.166C186.697 109.166 185.465 108.948 184.356 108.512C183.248 108.075 182.298 107.45 181.508 106.637C180.73 105.823 180.123 104.838 179.686 103.683C179.262 102.527 179.05 101.23 179.05 99.7911C179.05 98.3642 179.262 97.073 179.686 95.9173C180.123 94.7617 180.73 93.7829 181.508 92.981C182.298 92.1791 183.248 91.56 184.356 91.1237C185.465 90.6874 186.697 90.4692 188.053 90.4692ZM188.053 105.805C189.563 105.805 190.677 105.298 191.396 104.284C192.127 103.27 192.493 101.784 192.493 99.8265C192.493 97.8689 192.127 96.3772 191.396 95.3513C190.677 94.3253 189.563 93.8124 188.053 93.8124C186.52 93.8124 185.382 94.3312 184.639 95.369C183.908 96.3949 183.543 97.8807 183.543 99.8265C183.543 101.772 183.908 103.258 184.639 104.284C185.382 105.298 186.52 105.805 188.053 105.805Z" fill="white"/>
<path d="M156.89 104.195C157.385 104.797 157.922 105.221 158.5 105.469C159.089 105.717 159.708 105.84 160.357 105.84C161.029 105.84 161.63 105.723 162.161 105.487C162.704 105.239 163.163 104.862 163.541 104.355C163.918 103.836 164.207 103.181 164.408 102.391C164.608 101.589 164.708 100.634 164.708 99.5257C164.708 97.5328 164.378 96.0941 163.718 95.2097C163.057 94.3135 162.108 93.8654 160.87 93.8654C160.033 93.8654 159.301 94.0599 158.676 94.4491C158.051 94.8265 157.456 95.363 156.89 96.0588V104.195ZM156.89 92.9809C157.621 92.2144 158.429 91.6071 159.313 91.159C160.209 90.6991 161.23 90.4692 162.373 90.4692C163.423 90.4692 164.366 90.6755 165.204 91.0883C166.053 91.501 166.772 92.0965 167.362 92.8748C167.963 93.6413 168.423 94.5729 168.741 95.6696C169.06 96.7663 169.219 97.9986 169.219 99.3665C169.219 100.841 169.036 102.179 168.67 103.382C168.305 104.585 167.78 105.616 167.096 106.477C166.424 107.326 165.61 107.987 164.655 108.458C163.7 108.93 162.639 109.166 161.471 109.166C160.905 109.166 160.392 109.107 159.932 108.989C159.472 108.883 159.048 108.73 158.659 108.529C158.27 108.329 157.91 108.087 157.58 107.804C157.261 107.509 156.955 107.185 156.66 106.831L156.465 108.052C156.395 108.358 156.271 108.576 156.094 108.706C155.929 108.836 155.699 108.901 155.404 108.901H152.521V82.6155H156.89V92.9809Z" fill="white"/>
</svg>
